<svg viewBox="0 0 24 24" xmlns="http://www.w3.org/2000/svg" fill="none"><g id="SVGRepo_bgCarrier" stroke-width="0"></g><g id="SVGRepo_tracerCarrier" stroke-linecap="round" stroke-linejoin="round"></g><g id="SVGRepo_iconCarrier"><path stroke="#000000" stroke-linecap="round" stroke-linejoin="round" stroke-width="0.9120000000000001" d="M15 20c-3.2 0-4-2.667-4-4H3v2a2 2 0 0 0 2 2h10zm0 0a3 3 0 0 0 3-3v-7m0-6H7a2 2 0 0 0-2 2v10M18 4h1a2 2 0 0 1 2 2v2a2 2 0 0 1-2 2h-1m0-6v6" data-darkreader-inline-stroke="" style="--darkreader-inline-stroke: var(--darkreader-text-000000, #ffffff);"></path></g></svg>